<mxfile host="app.diagrams.net" agent="Mozilla/5.0 (Macintosh; Intel Mac OS X 10_15_7) AppleWebKit/537.36 (KHTML, like Gecko) Chrome/140.0.0.0 Safari/537.36" version="28.2.3">
  <diagram name="Page-1" id="JipwI8668YK4TrRfCywA">
    <mxGraphModel dx="1177" dy="794" grid="1" gridSize="10" guides="1" tooltips="1" connect="1" arrows="1" fold="1" page="1" pageScale="1" pageWidth="827" pageHeight="1169" math="0" shadow="0">
      <root>
        <mxCell id="0" />
        <mxCell id="1" parent="0" />
        <mxCell id="ArCptN_Yku2Iqdp0kLua-1" value="Spring Boot" style="swimlane;whiteSpace=wrap;html=1;rounded=1;fillColor=#dae8fc;strokeColor=#6c8ebf;" parent="1" vertex="1">
          <mxGeometry x="40" y="280" width="1560" height="1320" as="geometry" />
        </mxCell>
        <mxCell id="ArCptN_Yku2Iqdp0kLua-2" value="Core concept" style="swimlane;whiteSpace=wrap;html=1;rounded=1;fillColor=#dae8fc;strokeColor=#6c8ebf;" parent="ArCptN_Yku2Iqdp0kLua-1" vertex="1">
          <mxGeometry x="40" y="40" width="680" height="440" as="geometry" />
        </mxCell>
        <mxCell id="ArCptN_Yku2Iqdp0kLua-3" value="Actuator" style="rounded=1;whiteSpace=wrap;html=1;fillColor=#ffe6cc;strokeColor=#d79b00;" parent="ArCptN_Yku2Iqdp0kLua-2" vertex="1">
          <mxGeometry x="40" y="40" width="120" height="60" as="geometry" />
        </mxCell>
        <mxCell id="ArCptN_Yku2Iqdp0kLua-4" value="Aspect" style="rounded=1;whiteSpace=wrap;html=1;fillColor=#dae8fc;strokeColor=#6c8ebf;" parent="ArCptN_Yku2Iqdp0kLua-2" vertex="1">
          <mxGeometry x="40" y="120" width="120" height="60" as="geometry" />
        </mxCell>
        <mxCell id="ArCptN_Yku2Iqdp0kLua-5" value="Audit" style="rounded=1;whiteSpace=wrap;html=1;fillColor=#ffe6cc;strokeColor=#d79b00;" parent="ArCptN_Yku2Iqdp0kLua-2" vertex="1">
          <mxGeometry x="40" y="200" width="120" height="60" as="geometry" />
        </mxCell>
        <mxCell id="ArCptN_Yku2Iqdp0kLua-6" value="Bannière" style="rounded=1;whiteSpace=wrap;html=1;fillColor=#dae8fc;strokeColor=#6c8ebf;" parent="ArCptN_Yku2Iqdp0kLua-2" vertex="1">
          <mxGeometry x="40" y="280" width="120" height="60" as="geometry" />
        </mxCell>
        <mxCell id="ArCptN_Yku2Iqdp0kLua-7" value="Concurrence" style="swimlane;whiteSpace=wrap;html=1;rounded=1;fillColor=#dae8fc;strokeColor=#6c8ebf;" parent="ArCptN_Yku2Iqdp0kLua-2" vertex="1">
          <mxGeometry x="200" y="40" width="200" height="280" as="geometry" />
        </mxCell>
        <mxCell id="ArCptN_Yku2Iqdp0kLua-8" value="Async" style="rounded=1;whiteSpace=wrap;html=1;fillColor=#ffe6cc;strokeColor=#d79b00;" parent="ArCptN_Yku2Iqdp0kLua-7" vertex="1">
          <mxGeometry x="40" y="40" width="120" height="60" as="geometry" />
        </mxCell>
        <mxCell id="ArCptN_Yku2Iqdp0kLua-9" value="Reactive" style="rounded=1;whiteSpace=wrap;html=1;fillColor=#ffe6cc;strokeColor=#d79b00;" parent="ArCptN_Yku2Iqdp0kLua-7" vertex="1">
          <mxGeometry x="40" y="120" width="120" height="60" as="geometry" />
        </mxCell>
        <mxCell id="ArCptN_Yku2Iqdp0kLua-10" value="Threads virtuel" style="rounded=1;whiteSpace=wrap;html=1;fillColor=#ffe6cc;strokeColor=#d79b00;" parent="ArCptN_Yku2Iqdp0kLua-7" vertex="1">
          <mxGeometry x="40" y="200" width="120" height="60" as="geometry" />
        </mxCell>
        <mxCell id="ArCptN_Yku2Iqdp0kLua-11" value="Securité" style="swimlane;whiteSpace=wrap;html=1;rounded=1;fillColor=#dae8fc;strokeColor=#6c8ebf;" parent="ArCptN_Yku2Iqdp0kLua-2" vertex="1">
          <mxGeometry x="440" y="40" width="200" height="360" as="geometry" />
        </mxCell>
        <mxCell id="ArCptN_Yku2Iqdp0kLua-12" value="Basic Auth" style="rounded=1;whiteSpace=wrap;html=1;fillColor=#dae8fc;strokeColor=#6c8ebf;" parent="ArCptN_Yku2Iqdp0kLua-11" vertex="1">
          <mxGeometry x="40" y="40" width="120" height="60" as="geometry" />
        </mxCell>
        <mxCell id="ArCptN_Yku2Iqdp0kLua-13" value="JWT" style="rounded=1;whiteSpace=wrap;html=1;fillColor=#dae8fc;strokeColor=#6c8ebf;" parent="ArCptN_Yku2Iqdp0kLua-11" vertex="1">
          <mxGeometry x="40" y="120" width="120" height="60" as="geometry" />
        </mxCell>
        <mxCell id="ArCptN_Yku2Iqdp0kLua-14" value="JWT + rôles" style="rounded=1;whiteSpace=wrap;html=1;fillColor=#dae8fc;strokeColor=#6c8ebf;" parent="ArCptN_Yku2Iqdp0kLua-11" vertex="1">
          <mxGeometry x="40" y="200" width="120" height="60" as="geometry" />
        </mxCell>
        <mxCell id="ArCptN_Yku2Iqdp0kLua-15" value="OAuth2" style="rounded=1;whiteSpace=wrap;html=1;fillColor=#f5f5f5;fontColor=#333333;strokeColor=#666666;" parent="ArCptN_Yku2Iqdp0kLua-11" vertex="1">
          <mxGeometry x="40" y="280" width="120" height="60" as="geometry" />
        </mxCell>
        <mxCell id="ArCptN_Yku2Iqdp0kLua-16" value="SPEL" style="rounded=1;whiteSpace=wrap;html=1;fillColor=#fff2cc;strokeColor=#d6b656;" parent="ArCptN_Yku2Iqdp0kLua-2" vertex="1">
          <mxGeometry x="40" y="360" width="120" height="60" as="geometry" />
        </mxCell>
        <mxCell id="RRiYWUWPtvyrxtgxk0dB-3" value="Validation" style="rounded=1;whiteSpace=wrap;html=1;fillColor=#ffe6cc;strokeColor=#d79b00;" parent="ArCptN_Yku2Iqdp0kLua-2" vertex="1">
          <mxGeometry x="200" y="360" width="120" height="60" as="geometry" />
        </mxCell>
        <mxCell id="ArCptN_Yku2Iqdp0kLua-17" value="Database access" style="swimlane;whiteSpace=wrap;html=1;rounded=1;fillColor=#dae8fc;strokeColor=#6c8ebf;" parent="ArCptN_Yku2Iqdp0kLua-1" vertex="1">
          <mxGeometry x="520" y="520" width="840" height="280" as="geometry" />
        </mxCell>
        <mxCell id="ArCptN_Yku2Iqdp0kLua-19" value="Elastic" style="rounded=1;whiteSpace=wrap;html=1;fillColor=#ffe6cc;strokeColor=#d79b00;" parent="ArCptN_Yku2Iqdp0kLua-17" vertex="1">
          <mxGeometry x="440" y="120" width="120" height="60" as="geometry" />
        </mxCell>
        <mxCell id="ArCptN_Yku2Iqdp0kLua-20" value="Versionement base de donné" style="swimlane;whiteSpace=wrap;html=1;rounded=1;fillColor=#dae8fc;strokeColor=#6c8ebf;" parent="ArCptN_Yku2Iqdp0kLua-17" vertex="1">
          <mxGeometry x="600" y="40" width="200" height="200" as="geometry" />
        </mxCell>
        <mxCell id="ArCptN_Yku2Iqdp0kLua-21" value="Flyway" style="rounded=1;whiteSpace=wrap;html=1;fillColor=#dae8fc;strokeColor=#6c8ebf;" parent="ArCptN_Yku2Iqdp0kLua-20" vertex="1">
          <mxGeometry x="40" y="40" width="120" height="60" as="geometry" />
        </mxCell>
        <mxCell id="ArCptN_Yku2Iqdp0kLua-22" value="Liquibase" style="rounded=1;whiteSpace=wrap;html=1;fillColor=#dae8fc;strokeColor=#6c8ebf;" parent="ArCptN_Yku2Iqdp0kLua-20" vertex="1">
          <mxGeometry x="40" y="120" width="120" height="60" as="geometry" />
        </mxCell>
        <mxCell id="RRiYWUWPtvyrxtgxk0dB-1" value="R2DBC" style="rounded=1;whiteSpace=wrap;html=1;fillColor=#ffe6cc;strokeColor=#d79b00;" parent="ArCptN_Yku2Iqdp0kLua-17" vertex="1">
          <mxGeometry x="440" y="200" width="120" height="60" as="geometry" />
        </mxCell>
        <mxCell id="RRiYWUWPtvyrxtgxk0dB-2" value="QueryDSL" style="rounded=1;whiteSpace=wrap;html=1;fillColor=#ffe6cc;strokeColor=#d79b00;" parent="ArCptN_Yku2Iqdp0kLua-17" vertex="1">
          <mxGeometry x="440" y="40" width="120" height="60" as="geometry" />
        </mxCell>
        <mxCell id="yqUVngVg-zGSiyz_jGCu-1" value="Cache" style="swimlane;whiteSpace=wrap;html=1;rounded=1;fillColor=#dae8fc;strokeColor=#6c8ebf;" vertex="1" parent="ArCptN_Yku2Iqdp0kLua-17">
          <mxGeometry x="40" y="40" width="360" height="200" as="geometry" />
        </mxCell>
        <mxCell id="yqUVngVg-zGSiyz_jGCu-2" value="Mémoire" style="rounded=1;whiteSpace=wrap;html=1;fillColor=#ffe6cc;strokeColor=#d79b00;" vertex="1" parent="yqUVngVg-zGSiyz_jGCu-1">
          <mxGeometry x="40" y="40" width="120" height="60" as="geometry" />
        </mxCell>
        <mxCell id="yqUVngVg-zGSiyz_jGCu-3" value="Caffeine" style="rounded=1;whiteSpace=wrap;html=1;fillColor=#ffe6cc;strokeColor=#d79b00;" vertex="1" parent="yqUVngVg-zGSiyz_jGCu-1">
          <mxGeometry x="40" y="120" width="120" height="60" as="geometry" />
        </mxCell>
        <mxCell id="yqUVngVg-zGSiyz_jGCu-4" value="Redis" style="rounded=1;whiteSpace=wrap;html=1;fillColor=#ffe6cc;strokeColor=#d79b00;" vertex="1" parent="yqUVngVg-zGSiyz_jGCu-1">
          <mxGeometry x="200" y="40" width="120" height="60" as="geometry" />
        </mxCell>
        <mxCell id="ArCptN_Yku2Iqdp0kLua-23" value="Developper tools" style="swimlane;whiteSpace=wrap;html=1;rounded=1;fillColor=#dae8fc;strokeColor=#6c8ebf;" parent="ArCptN_Yku2Iqdp0kLua-1" vertex="1">
          <mxGeometry x="40" y="520" width="440" height="280" as="geometry" />
        </mxCell>
        <mxCell id="ArCptN_Yku2Iqdp0kLua-24" value="Génération de code" style="swimlane;whiteSpace=wrap;html=1;rounded=1;fillColor=#dae8fc;strokeColor=#6c8ebf;" parent="ArCptN_Yku2Iqdp0kLua-23" vertex="1">
          <mxGeometry x="40" y="40" width="200" height="200" as="geometry" />
        </mxCell>
        <mxCell id="ArCptN_Yku2Iqdp0kLua-25" value="Mapstruc" style="rounded=1;whiteSpace=wrap;html=1;fillColor=#dae8fc;strokeColor=#6c8ebf;" parent="ArCptN_Yku2Iqdp0kLua-24" vertex="1">
          <mxGeometry x="40" y="40" width="120" height="60" as="geometry" />
        </mxCell>
        <mxCell id="ArCptN_Yku2Iqdp0kLua-26" value="OpenAPI codegen" style="rounded=1;whiteSpace=wrap;html=1;fillColor=#dae8fc;strokeColor=#6c8ebf;" parent="ArCptN_Yku2Iqdp0kLua-24" vertex="1">
          <mxGeometry x="40" y="120" width="120" height="60" as="geometry" />
        </mxCell>
        <mxCell id="ArCptN_Yku2Iqdp0kLua-27" value="Modulith" style="rounded=1;whiteSpace=wrap;html=1;fillColor=#ffe6cc;strokeColor=#d79b00;" parent="ArCptN_Yku2Iqdp0kLua-23" vertex="1">
          <mxGeometry x="274" y="40" width="120" height="60" as="geometry" />
        </mxCell>
        <mxCell id="ArCptN_Yku2Iqdp0kLua-28" value="Intégration" style="swimlane;whiteSpace=wrap;html=1;rounded=1;fillColor=#dae8fc;strokeColor=#6c8ebf;" parent="ArCptN_Yku2Iqdp0kLua-1" vertex="1">
          <mxGeometry x="760" y="40" width="520" height="440" as="geometry" />
        </mxCell>
        <mxCell id="ArCptN_Yku2Iqdp0kLua-29" value="BRMS" style="swimlane;whiteSpace=wrap;html=1;rounded=1;fillColor=#dae8fc;strokeColor=#6c8ebf;" parent="ArCptN_Yku2Iqdp0kLua-28" vertex="1">
          <mxGeometry x="40" y="40" width="200" height="280" as="geometry" />
        </mxCell>
        <mxCell id="ArCptN_Yku2Iqdp0kLua-30" value="Drools" style="rounded=1;whiteSpace=wrap;html=1;fillColor=#dae8fc;strokeColor=#6c8ebf;" parent="ArCptN_Yku2Iqdp0kLua-29" vertex="1">
          <mxGeometry x="40" y="40" width="120" height="60" as="geometry" />
        </mxCell>
        <mxCell id="ArCptN_Yku2Iqdp0kLua-31" value="RuleBook" style="rounded=1;whiteSpace=wrap;html=1;fillColor=#dae8fc;strokeColor=#6c8ebf;" parent="ArCptN_Yku2Iqdp0kLua-29" vertex="1">
          <mxGeometry x="40" y="120" width="120" height="60" as="geometry" />
        </mxCell>
        <mxCell id="ArCptN_Yku2Iqdp0kLua-32" value="Easy Rules" style="rounded=1;whiteSpace=wrap;html=1;fillColor=#dae8fc;strokeColor=#6c8ebf;" parent="ArCptN_Yku2Iqdp0kLua-29" vertex="1">
          <mxGeometry x="40" y="200" width="120" height="60" as="geometry" />
        </mxCell>
        <mxCell id="ArCptN_Yku2Iqdp0kLua-33" value="Messaging" style="swimlane;whiteSpace=wrap;html=1;rounded=1;startSize=23;fillColor=#dae8fc;strokeColor=#6c8ebf;" parent="ArCptN_Yku2Iqdp0kLua-28" vertex="1">
          <mxGeometry x="280" y="40" width="200" height="200" as="geometry" />
        </mxCell>
        <mxCell id="ArCptN_Yku2Iqdp0kLua-34" value="Kafka" style="rounded=1;whiteSpace=wrap;html=1;fillColor=#ffe6cc;strokeColor=#d79b00;" parent="ArCptN_Yku2Iqdp0kLua-33" vertex="1">
          <mxGeometry x="40" y="40" width="120" height="60" as="geometry" />
        </mxCell>
        <mxCell id="ArCptN_Yku2Iqdp0kLua-35" value="JMS" style="rounded=1;whiteSpace=wrap;html=1;fillColor=#ffe6cc;strokeColor=#d79b00;" parent="ArCptN_Yku2Iqdp0kLua-33" vertex="1">
          <mxGeometry x="40" y="120" width="120" height="60" as="geometry" />
        </mxCell>
        <mxCell id="ArCptN_Yku2Iqdp0kLua-36" value="Notification" style="rounded=1;whiteSpace=wrap;html=1;fillColor=#ffe6cc;strokeColor=#d79b00;" parent="ArCptN_Yku2Iqdp0kLua-28" vertex="1">
          <mxGeometry x="40" y="360" width="120" height="60" as="geometry" />
        </mxCell>
        <mxCell id="RRiYWUWPtvyrxtgxk0dB-4" value="Websocket" style="rounded=1;whiteSpace=wrap;html=1;fillColor=#fff2cc;strokeColor=#d6b656;" parent="ArCptN_Yku2Iqdp0kLua-28" vertex="1">
          <mxGeometry x="200" y="360" width="120" height="60" as="geometry" />
        </mxCell>
        <mxCell id="ArCptN_Yku2Iqdp0kLua-37" value="Operation" style="swimlane;whiteSpace=wrap;html=1;rounded=1;fillColor=#dae8fc;strokeColor=#6c8ebf;" parent="ArCptN_Yku2Iqdp0kLua-1" vertex="1">
          <mxGeometry x="40" y="840" width="920" height="360" as="geometry" />
        </mxCell>
        <mxCell id="ArCptN_Yku2Iqdp0kLua-38" value="Monitoring" style="swimlane;whiteSpace=wrap;html=1;rounded=1;fillColor=#dae8fc;strokeColor=#6c8ebf;" parent="ArCptN_Yku2Iqdp0kLua-37" vertex="1">
          <mxGeometry x="40" y="40" width="200" height="200" as="geometry" />
        </mxCell>
        <mxCell id="ArCptN_Yku2Iqdp0kLua-39" value="Spring boot admin" style="rounded=1;whiteSpace=wrap;html=1;fillColor=#dae8fc;strokeColor=#6c8ebf;" parent="ArCptN_Yku2Iqdp0kLua-38" vertex="1">
          <mxGeometry x="40" y="40" width="120" height="60" as="geometry" />
        </mxCell>
        <mxCell id="ArCptN_Yku2Iqdp0kLua-40" value="Prometheus" style="rounded=1;whiteSpace=wrap;html=1;fillColor=#dae8fc;strokeColor=#6c8ebf;" parent="ArCptN_Yku2Iqdp0kLua-38" vertex="1">
          <mxGeometry x="40" y="120" width="120" height="60" as="geometry" />
        </mxCell>
        <mxCell id="ArCptN_Yku2Iqdp0kLua-41" value="Scheduling" style="swimlane;whiteSpace=wrap;html=1;rounded=1;fillColor=#dae8fc;strokeColor=#6c8ebf;" parent="ArCptN_Yku2Iqdp0kLua-37" vertex="1">
          <mxGeometry x="280" y="40" width="200" height="200" as="geometry" />
        </mxCell>
        <mxCell id="ArCptN_Yku2Iqdp0kLua-42" value="Spring batch" style="rounded=1;whiteSpace=wrap;html=1;fillColor=#dae8fc;strokeColor=#6c8ebf;" parent="ArCptN_Yku2Iqdp0kLua-41" vertex="1">
          <mxGeometry x="40" y="40" width="120" height="60" as="geometry" />
        </mxCell>
        <mxCell id="ArCptN_Yku2Iqdp0kLua-43" value="Quartz" style="rounded=1;whiteSpace=wrap;html=1;fillColor=#ffe6cc;strokeColor=#d79b00;" parent="ArCptN_Yku2Iqdp0kLua-41" vertex="1">
          <mxGeometry x="40" y="120" width="120" height="60" as="geometry" />
        </mxCell>
        <mxCell id="ArCptN_Yku2Iqdp0kLua-44" value="Vertical Container" style="swimlane;whiteSpace=wrap;html=1;rounded=1;fillColor=#dae8fc;strokeColor=#6c8ebf;" parent="ArCptN_Yku2Iqdp0kLua-37" vertex="1">
          <mxGeometry x="520" y="40" width="360" height="200" as="geometry" />
        </mxCell>
        <mxCell id="ArCptN_Yku2Iqdp0kLua-45" value="Archunit" style="rounded=1;whiteSpace=wrap;html=1;fillColor=#dae8fc;strokeColor=#6c8ebf;" parent="ArCptN_Yku2Iqdp0kLua-44" vertex="1">
          <mxGeometry x="40" y="40" width="120" height="60" as="geometry" />
        </mxCell>
        <mxCell id="ArCptN_Yku2Iqdp0kLua-46" value="Chaos Monkey" style="rounded=1;whiteSpace=wrap;html=1;fillColor=#dae8fc;strokeColor=#6c8ebf;" parent="ArCptN_Yku2Iqdp0kLua-44" vertex="1">
          <mxGeometry x="40" y="120" width="120" height="60" as="geometry" />
        </mxCell>
        <mxCell id="ArCptN_Yku2Iqdp0kLua-47" value="Gatling" style="rounded=1;whiteSpace=wrap;html=1;fillColor=#dae8fc;strokeColor=#6c8ebf;" parent="ArCptN_Yku2Iqdp0kLua-44" vertex="1">
          <mxGeometry x="200" y="40" width="120" height="60" as="geometry" />
        </mxCell>
        <mxCell id="ArCptN_Yku2Iqdp0kLua-48" value="tests paramétrés" style="rounded=1;whiteSpace=wrap;html=1;fillColor=#dae8fc;strokeColor=#6c8ebf;" parent="ArCptN_Yku2Iqdp0kLua-44" vertex="1">
          <mxGeometry x="200" y="120" width="120" height="60" as="geometry" />
        </mxCell>
        <mxCell id="ArCptN_Yku2Iqdp0kLua-64" value="Résilience4J" style="rounded=1;whiteSpace=wrap;html=1;fillColor=#ffe6cc;strokeColor=#d79b00;" parent="ArCptN_Yku2Iqdp0kLua-37" vertex="1">
          <mxGeometry x="40" y="280" width="120" height="60" as="geometry" />
        </mxCell>
        <mxCell id="ArCptN_Yku2Iqdp0kLua-53" value="Web" style="swimlane;whiteSpace=wrap;html=1;rounded=1;fillColor=#dae8fc;strokeColor=#6c8ebf;" parent="ArCptN_Yku2Iqdp0kLua-1" vertex="1">
          <mxGeometry x="1000" y="840" width="520" height="440" as="geometry" />
        </mxCell>
        <mxCell id="ArCptN_Yku2Iqdp0kLua-54" value="templating" style="swimlane;whiteSpace=wrap;html=1;rounded=1;fillColor=#dae8fc;strokeColor=#6c8ebf;" parent="ArCptN_Yku2Iqdp0kLua-53" vertex="1">
          <mxGeometry x="39" y="40" width="200" height="200" as="geometry" />
        </mxCell>
        <mxCell id="ArCptN_Yku2Iqdp0kLua-55" value="Jasper" style="rounded=1;whiteSpace=wrap;html=1;fillColor=#f5f5f5;fontColor=#333333;strokeColor=#666666;" parent="ArCptN_Yku2Iqdp0kLua-54" vertex="1">
          <mxGeometry x="41" y="40" width="120" height="60" as="geometry" />
        </mxCell>
        <mxCell id="ArCptN_Yku2Iqdp0kLua-56" value="Thymeleaf" style="rounded=1;whiteSpace=wrap;html=1;fillColor=#ffe6cc;strokeColor=#d79b00;" parent="ArCptN_Yku2Iqdp0kLua-54" vertex="1">
          <mxGeometry x="41" y="120" width="120" height="60" as="geometry" />
        </mxCell>
        <mxCell id="ArCptN_Yku2Iqdp0kLua-57" value="Versionnement des API" style="rounded=1;whiteSpace=wrap;html=1;fillColor=#ffe6cc;strokeColor=#d79b00;" parent="ArCptN_Yku2Iqdp0kLua-53" vertex="1">
          <mxGeometry x="280" y="40" width="120" height="60" as="geometry" />
        </mxCell>
        <mxCell id="ArCptN_Yku2Iqdp0kLua-58" value="Bucket4J" style="rounded=1;whiteSpace=wrap;html=1;fillColor=#dae8fc;strokeColor=#6c8ebf;" parent="ArCptN_Yku2Iqdp0kLua-53" vertex="1">
          <mxGeometry x="280" y="120" width="120" height="60" as="geometry" />
        </mxCell>
        <mxCell id="ArCptN_Yku2Iqdp0kLua-60" value="GraphQL" style="rounded=1;whiteSpace=wrap;html=1;fillColor=#dae8fc;strokeColor=#6c8ebf;" parent="ArCptN_Yku2Iqdp0kLua-53" vertex="1">
          <mxGeometry x="39" y="280" width="120" height="60" as="geometry" />
        </mxCell>
        <mxCell id="ArCptN_Yku2Iqdp0kLua-61" value="HATEOAS" style="rounded=1;whiteSpace=wrap;html=1;fillColor=#dae8fc;strokeColor=#6c8ebf;" parent="ArCptN_Yku2Iqdp0kLua-53" vertex="1">
          <mxGeometry x="280" y="200" width="120" height="60" as="geometry" />
        </mxCell>
        <mxCell id="ArCptN_Yku2Iqdp0kLua-62" value="Internationalization" style="rounded=1;whiteSpace=wrap;html=1;fillColor=#ffe6cc;strokeColor=#d79b00;" parent="ArCptN_Yku2Iqdp0kLua-53" vertex="1">
          <mxGeometry x="39" y="360" width="120" height="60" as="geometry" />
        </mxCell>
        <mxCell id="ArCptN_Yku2Iqdp0kLua-63" value="Vaadin" style="rounded=1;whiteSpace=wrap;html=1;fillColor=#dae8fc;strokeColor=#6c8ebf;" parent="ArCptN_Yku2Iqdp0kLua-53" vertex="1">
          <mxGeometry x="200" y="320" width="120" height="60" as="geometry" />
        </mxCell>
      </root>
    </mxGraphModel>
  </diagram>
</mxfile>
